<svg height="478" width="720" xmlns="http://www.w3.org/2000/svg">
<rect height="478" fill="#555" width="720"></rect>
<text fill="#7f7" font-family="Courier New" font-size="12" xml:space="preserve">
<tspan x="10" y="26">2 megabytes installed</tspan>
<tspan x="10" y="42"></tspan>
<tspan x="10" y="58">node_modules</tspan>
<tspan x="10" y="74">└─┬ graceful-fs-extra@2.0.0 </tspan>
<tspan x="10" y="90">  ├─┬ fs-extra@0.30.0 </tspan>
<tspan x="10" y="106">  │ ├── graceful-fs@4.1.11 </tspan>
<tspan x="10" y="122">  │ ├── jsonfile@2.4.0 </tspan>
<tspan x="10" y="138">  │ ├── klaw@1.3.1 </tspan>
<tspan x="10" y="154">  │ ├── path-is-absolute@1.0.1 </tspan>
<tspan x="10" y="170">  │ └─┬ rimraf@2.6.1 </tspan>
<tspan x="10" y="186">  │   └─┬ glob@7.1.1 </tspan>
<tspan x="10" y="202">  │     ├── fs.realpath@1.0.0 </tspan>
<tspan x="10" y="218">  │     ├─┬ inflight@1.0.6 </tspan>
<tspan x="10" y="234">  │     │ └── wrappy@1.0.2 </tspan>
<tspan x="10" y="250">  │     ├── inherits@2.0.3 </tspan>
<tspan x="10" y="266">  │     ├─┬ minimatch@3.0.3 </tspan>
<tspan x="10" y="282">  │     │ └─┬ brace-expansion@1.1.7 </tspan>
<tspan x="10" y="298">  │     │   ├── balanced-match@0.4.2 </tspan>
<tspan x="10" y="314">  │     │   └── concat-map@0.0.1 </tspan>
<tspan x="10" y="330">  │     └── once@1.4.0 </tspan>
<tspan x="10" y="346">  ├─┬ graceful-ncp@3.0.0 </tspan>
<tspan x="10" y="362">  │ └── ncp@2.0.0 </tspan>
<tspan x="10" y="378">  └─┬ proxyquire@1.7.11 </tspan>
<tspan x="10" y="394">    ├─┬ fill-keys@1.0.2 </tspan>
<tspan x="10" y="410">    │ ├── is-object@1.0.1 </tspan>
<tspan x="10" y="426">    │ └── merge-descriptors@1.0.1 </tspan>
<tspan x="10" y="442">    ├── module-not-found-error@1.0.1 </tspan>
<tspan x="10" y="458">    └── resolve@1.1.7</tspan>
</text>
</svg>
